<svg width="20" height="20" viewBox="0 0 20 20" fill="none" xmlns="http://www.w3.org/2000/svg">
<path fill-rule="evenodd" clip-rule="evenodd" d="M2.92893 17.0711C6.83418 20.9763 13.1658 20.9763 17.0711 17.0711C20.9763 13.1658 20.9763 6.83418 17.0711 2.92893C13.1658 -0.976311 6.83418 -0.976311 2.92893 2.92893C-0.976311 6.83418 -0.976311 13.1658 2.92893 17.0711ZM3.63604 16.364C7.15076 19.8787 12.8492 19.8787 16.364 16.364C19.8787 12.8492 19.8787 7.15076 16.364 3.63604C12.8492 0.12132 7.15076 0.12132 3.63604 3.63604C0.12132 7.15076 0.12132 12.8492 3.63604 16.364Z" fill="black"/>
<path fill-rule="evenodd" clip-rule="evenodd" d="M16.364 16.364C12.8492 19.8787 7.15076 19.8787 3.63604 16.364C0.12132 12.8492 0.12132 7.15076 3.63604 3.63604C7.15076 0.12132 12.8492 0.12132 16.364 3.63604C19.8787 7.15076 19.8787 12.8492 16.364 16.364ZM14.5962 6.11091L10.7071 10L14.5964 13.8893C14.7916 14.0845 14.7916 14.4011 14.5964 14.5964C14.4011 14.7916 14.0845 14.7916 13.8893 14.5964L10 10.7071L6.11091 14.5962C5.91565 14.7915 5.59907 14.7915 5.4038 14.5962C5.20854 14.4009 5.20854 14.0844 5.4038 13.8891L9.29289 10L5.40398 6.11109C5.20872 5.91582 5.20872 5.59924 5.40398 5.40398C5.59924 5.20872 5.91582 5.20872 6.11109 5.40398L10 9.29289L13.8891 5.40381C14.0843 5.20854 14.4009 5.20854 14.5962 5.40381C14.7915 5.59907 14.7915 5.91565 14.5962 6.11091Z" fill="black"/>
</svg>
