<svg width="19" height="20" viewBox="0 0 19 20" fill="none" xmlns="http://www.w3.org/2000/svg">
<path d="M0.74907 2.55962C0.358546 2.16909 0.358546 1.53593 0.74907 1.1454C1.13959 0.754879 1.77276 0.754879 2.16328 1.1454L18.4495 17.4316C18.84 17.8222 18.84 18.4553 18.4495 18.8458C18.059 19.2364 17.4258 19.2364 17.0353 18.8458L0.74907 2.55962Z" fill="#0D0D0D"/>
<path d="M0.74907 17.4315C0.358546 17.8221 0.358546 18.4552 0.74907 18.8457C1.13959 19.2363 1.77276 19.2363 2.16328 18.8457L18.4495 2.55952C18.84 2.169 18.84 1.53583 18.4495 1.14531C18.059 0.754786 17.4258 0.754786 17.0353 1.14531L0.74907 17.4315Z" fill="#0D0D0D"/>
</svg>
